<svg width="175" height="192" viewBox="0 0 175 192" fill="none" xmlns="http://www.w3.org/2000/svg">
<path d="M112.028 15.957C113.215 14.5724 114.702 15.6271 116.087 15.4756C117.034 15.4168 118.303 14.9119 119.14 15.6793C119.951 16.5466 120.86 15.8347 121.677 16.2755C122.231 16.5361 122.952 16.9502 123.713 16.4113C123.958 16.265 124.537 16.4257 124.704 16.5791C125.181 17.1395 125.631 17.7998 126.443 17.0611C127.563 18.3353 129.36 18.1909 130.705 18.9923C132.218 19.9471 133.853 20.8288 135.566 21.4107C135.919 22.0442 136.273 22.6777 136.626 23.3113C137.265 22.8456 137.87 22.9063 138.539 23.5202C140.759 25.7421 143.521 27.4715 145.47 29.9396C146.942 31.8473 148.712 33.4089 149.888 35.6628C151.039 38.0166 152.775 40.1046 154.048 42.3853C155.861 45.7795 157.209 49.3665 158.925 52.7339C158.853 54.2133 159.805 55.334 160.267 56.7473C160.729 58.1607 161.41 59.5277 161.847 61.0409C162.186 62.5274 162.526 64.0139 163.33 65.3078C163.613 65.8146 163.219 66.134 162.633 66.3998C163.076 67.4866 164.132 68.2076 164.156 69.7137C164.161 70.8932 165.087 72.1139 165.356 73.4737C166.434 77.3069 167.389 81.2132 168.125 85.1658C168.368 86.6256 168.366 88.2316 168.854 89.545C169.342 90.8584 169.077 92.2842 169.539 93.6976C170.001 95.1109 170.244 96.5706 170.365 98.1035C170.778 102.502 171.63 106.808 172.018 111.307C172.476 115.932 173.031 120.585 173.245 125.356C173.339 126.989 173.627 128.675 173.625 130.282C173.713 132.341 173.608 134.347 173.722 136.306C173.835 138.265 174.29 140.105 173.895 142.031C173.792 142.43 174.339 143.117 174.016 143.563C173.693 144.01 174.827 144.431 173.873 144.916C173.505 145.135 174.271 145.776 174.361 146.229C174.495 146.909 174.121 147.555 174.133 148.308C174.122 151.947 174.331 155.539 174.03 159.097C173.802 161.176 173.574 163.255 173.855 165.368C174.054 166.601 173.086 167.939 173.451 169.326C172.522 171.317 173.286 173.564 172.478 175.482C172.226 176.055 172.992 176.696 172.109 177.308C171.786 177.754 172.545 178.821 172.145 179.567C171.771 180.213 171.783 180.966 171.575 181.765C171.394 182.465 171.187 183.264 171.006 183.964C170.54 185.762 169.643 187.227 168.166 188.532C166.812 189.763 165.536 190.694 163.925 191.319C163.338 191.585 162.881 191.351 162.424 191.117C162.103 189.957 163.225 189.625 163.528 188.853C163.903 188.207 164.779 188.021 164.722 187.041C164.684 186.388 165.612 186.003 165.021 185.089C164.526 184.202 166.226 184.031 165.976 182.998C165.783 182.944 165.519 182.764 165.352 182.611C165.255 182.584 165.185 182.457 165.211 182.357C165.773 180.585 165.73 178.753 165.977 177C165.984 176.574 166.518 176.508 166.789 176.262C166.525 176.081 166.262 175.901 165.901 175.694C165.863 175.041 165.922 174.415 166.631 174.076C166.56 173.949 166.612 173.749 166.541 173.622C165.898 172.908 166.324 172.063 166.215 171.283C166.188 166.991 166.792 162.66 166.23 158.435C166.851 156.036 166.113 153.69 166.103 151.331C166.079 149.824 166.055 148.318 166.005 146.912C165.981 145.406 165.01 143.959 165.811 142.467C165.073 140.12 165.526 137.569 165.007 135.176C164.623 133.462 164.87 131.71 164.608 129.924C164.32 128.237 164.277 126.405 164.085 124.745C163.715 122.179 163.66 119.593 162.999 116.947C162.634 115.56 162.417 114.001 162.27 112.568C161.724 105.883 160.205 99.3571 158.808 92.758C158.379 90.8182 157.537 88.8713 157.739 86.8923C157.805 85.8395 156.942 85.172 157.034 84.0192C157.119 83.293 156.308 82.4256 156.129 81.5191C155.975 80.5126 155.673 79.6793 155.494 78.7727C155.058 77.2595 154.428 75.6926 155.132 74.1741C154.753 73.6405 154.623 74.1401 154.404 74.1865C153.273 72.1593 153.228 71.9326 154.344 70.4213C154.106 70.1411 153.991 69.7877 153.849 69.5343C153.604 69.6806 153.385 69.727 153.237 69.9001C151.957 68.0459 151.309 66.1525 152.265 64.0612C151.737 63.7007 151.433 64.4733 150.931 64.0129C150.141 61.8661 149.5 59.5462 148.491 57.4458C147.642 55.9254 146.916 54.3318 145.971 52.7845C145.052 51.1374 144.133 49.4902 143.214 47.8431C142.294 46.1959 141.594 44.5024 140.43 43.0015C138.436 40.3068 136.417 37.712 134.152 35.2635C132.267 33.3486 130.233 31.6067 128.27 29.9916C126.906 28.8637 125.271 27.982 123.584 27.3002C122.741 26.9593 122.02 26.5452 121.325 26.0312C121.061 25.851 120.674 25.7439 120.281 26.0633C120.003 26.736 120.383 27.2696 120.717 27.5765C122.803 29.1185 124.05 31.4991 125.348 33.6799C126.673 35.7607 127.849 38.0146 129.025 40.2685C130.979 43.9161 132.373 47.7297 133.399 51.7627C134.085 54.3092 134.894 56.7826 135.361 59.3755C136.168 63.4548 136.685 67.4539 136.667 71.5189C136.635 72.0454 137.233 72.5326 136.885 73.0786C136.388 73.7977 137.611 74.6722 136.779 75.0843C135.729 75.5428 136.907 76.1907 136.558 76.7367C136.236 77.1828 136.151 77.9091 136.601 78.5694C136.813 78.9495 136.201 79.3153 135.834 79.5347C136.863 80.3557 136.334 81.6012 136.127 82.4006C135.621 85.1523 134.993 87.977 134.004 90.5948C133.223 92.4131 132.608 94.3849 131.537 96.1229C130.492 97.7609 129.253 99.3454 128.278 101.11C127.556 102.302 126.55 102.987 125.66 104.026C124.892 104.991 123.79 105.649 123.119 106.642C122.054 107.953 120.45 108.151 119.367 109.136C118.284 110.121 116.679 110.319 115.242 110.67C113.587 111.068 111.808 111.539 110.037 111.583C108.362 111.655 106.661 111.826 104.915 111.77C102.661 111.681 100.406 111.592 98.1848 110.976C97.2189 110.708 96.1684 111.166 95.1576 110.672C93.8312 110.197 92.453 109.922 91.2301 109.048C90.078 108.3 88.6739 108.125 87.3993 107.45C82.6163 104.732 81.7211 104.591 77.4678 100.627C76.8952 100.04 76.6711 98.9071 75.6534 98.8392C73.5838 94.8382 70.8053 91.1762 69.5672 86.7631C67.9566 81.3899 67.0997 75.9044 66.9967 70.3064C66.9986 68.7004 66.4657 67.1604 66.8798 65.5615C65.2599 68.2184 66.6672 71.179 65.8838 74.6034C65.1527 71.8302 65.3805 69.7513 65.4152 67.6189C65.5085 64.8601 65.7244 62.0281 66.3266 59.3033C66.6372 58.1041 66.6132 56.598 66.853 55.2722C67.067 54.0463 68.1693 53.3879 68.2867 52.1352C68.3782 50.9824 68.6629 49.8832 69.1408 48.8376C70.7935 45.6542 72.2531 42.4173 74.099 39.2875C75.9967 35.9578 78.4928 33.1154 80.989 30.2729C82.5951 28.469 84.3236 26.5918 86.5729 25.5017C87.501 25.1163 87.934 23.8441 89.0742 23.8388C89.1708 23.8656 89.107 23.3124 89.4486 23.1929C90.1316 22.9538 89.9006 22.2471 90.2232 21.801C87.629 20.2251 84.9573 18.949 82.4338 17.4997C80.5348 16.4378 78.4097 15.8488 76.4848 14.8868C74.5599 13.9248 72.3124 13.4088 70.2063 13.1463C67.1084 12.716 63.9398 12.1589 60.6866 12.3282C57.5559 12.4243 54.5597 13.2003 51.5186 13.7496C50.5458 13.9083 50.0161 15.1539 48.8829 14.7326C46.6455 16.5758 43.5855 16.7986 41.5603 19.0218C40.2769 20.3797 38.4467 21.0505 36.9959 22.2549C34.8811 24.0249 32.9076 26.0484 30.7927 27.8184C29.0711 29.269 27.6841 31.0266 26.1299 32.6307C23.7631 34.9735 21.8983 37.7768 20.0334 40.58C19.0139 42.1181 17.8011 43.6027 16.8523 45.2675C15.5998 47.705 13.8902 49.9087 13.3846 52.6603C13.1965 53.7863 13.5172 54.9463 13.1101 56.1186C12.8323 56.7913 12.439 57.1107 11.8525 57.3766C11.3903 55.9632 11.5854 54.4107 10.5695 52.7368C10.6712 53.9431 8.9515 53.7877 9.67755 55.3813C10.0052 56.1148 9.0892 57.2532 9.87395 58.2204C9.38405 58.5131 9.04253 58.6326 8.33355 58.9716C8.1473 58.4915 7.89034 57.8848 7.72997 57.3048C7.6662 56.7516 7.91808 56.1788 6.77792 56.1841C7.19524 57.3708 6.74324 58.3165 6.43266 59.5157C5.37014 59.2211 4.22998 59.2264 3.54182 58.2859C3.20028 58.4054 3.43134 59.1121 2.92249 59.0782C2.66553 58.4714 2.06705 57.9842 1.95844 57.2044C1.92055 56.5513 1.76018 55.9713 1.6257 55.2914C0.916717 55.6304 1.4117 56.5173 0.728622 56.7564C0.356107 55.7963 0.299283 54.8166 0.583984 53.7174C1.35351 51.146 2.05232 48.4479 2.62865 45.823C2.89441 44.3973 3.78455 43.3588 4.3142 42.1133C5.39938 39.5223 6.89681 36.9385 8.53567 34.6081C9.87781 32.6239 10.9819 30.3595 12.826 28.8357C15.6207 24.0411 20.2041 21.1346 23.906 17.234C24.7703 16.2955 25.995 15.5639 27.0973 14.9056C31.1907 12.2917 35.0979 9.19773 39.5 6.99073C45.5651 3.95943 51.8353 1.73474 58.5228 0.696776C61.319 0.293719 64.0374 0.190461 66.8266 0.213908C68.8878 0.249781 70.8715 0.585439 72.9138 0.294755C73.1329 0.248378 73.2036 0.375082 73.4226 0.328705C76.5205 0.759039 88.2669 3.37256 90.4557 4.51482C92.8377 5.71063 95.394 6.63344 97.7501 7.92919C100.01 9.19815 102.147 10.5403 104.406 11.8092C104.599 11.8628 104.818 11.8164 104.889 11.9431C106.69 14.5843 109.175 15.3804 112.028 15.957ZM108.485 38.4304C107.7 37.4632 107.257 36.3764 106.446 35.5091C104.639 33.2944 102.412 31.499 100.308 29.6304C99.3749 28.8363 98.2606 28.7416 97.4482 29.4803C94.6881 32.1425 91.9539 34.7047 89.8889 37.8809C88.966 39.4458 87.8757 40.8573 86.9527 42.4222C85.9073 44.0602 85.2224 45.9053 84.3701 47.5969C83.5179 49.2885 83.2452 51.1408 82.3671 52.9323C81.1405 55.2699 81.9164 58.2697 80.8571 60.7607C81.616 61.8279 80.6293 62.8396 80.7568 63.946C80.8636 66.3319 80.9962 68.6178 81.1029 71.0036C81.1819 75.0955 82.1372 79.0018 83.434 82.7885C84.4549 85.642 85.6431 88.649 87.4696 91.1902C88.7493 93.0444 90.055 94.7987 91.6314 96.3067C94.3082 98.7624 97.1334 101.045 100.856 101.863C101.339 101.996 101.918 102.157 102.401 102.291C105.994 103.608 108.399 101.919 110.933 99.7292C112.261 98.598 113.017 96.8796 114.583 96.0286C114.493 95.5753 113.798 95.0613 114.63 94.6492C115.12 94.3565 115.223 93.9568 115.23 93.5303C115.341 92.7041 116.248 93.5982 116.403 92.9987C115.696 91.7316 116.36 91.166 117.411 90.7075C117.552 90.9609 117.719 91.1144 117.931 91.4945C118.616 89.6494 118.96 87.9238 119.786 86.3322C121.013 83.9946 120.816 81.1555 121.174 78.577C121.505 76.0983 121.643 73.5662 121.079 70.9465C121.105 70.8466 121.473 70.6271 121.718 70.4808C120.29 68.7997 120.35 66.5674 119.921 64.6276C119.178 61.1014 118.46 57.4753 116.693 54.3077C116.41 53.8008 116.732 53.3548 116.617 53.0014C116.315 52.168 116.619 51.3954 116.51 50.6156C116.124 50.5085 115.834 50.4281 115.544 50.3478C115.016 49.9873 115.487 49.3681 115.108 48.8345C114.799 48.4276 114.194 48.3669 114.111 47.4872C113.939 46.1541 113.012 44.9335 112.254 43.8663C111.495 42.7991 111.645 41.02 110.029 40.4649C109.449 40.3042 109.708 39.3049 109.451 38.6982C109.161 38.6178 108.775 38.5107 108.485 38.4304ZM128.177 93.9062C128.907 92.2878 130.454 91.1102 130.534 89.2043C130.541 88.7779 130.786 88.6316 131.153 88.4121C131.45 88.0659 132.181 84.8414 132.407 84.3686C132.937 83.1231 131.966 81.6758 132.856 80.6373C133.869 79.5256 133.671 78.2925 133.814 76.9399C134.133 73.7083 133.918 70.5426 132.885 66.9361C132.697 68.0621 132.49 68.8615 131.781 69.2005C132.115 69.5074 132.528 69.5146 132.714 69.9946C131.636 72.1591 132.251 74.5789 131.849 76.9308C131.499 79.0829 131.412 81.4152 130.843 83.6136C129.937 87.1111 129.057 90.5087 128.177 93.9062Z" fill="white"/>
</svg>
