<svg width="198" height="163" viewBox="0 0 198 163" fill="none" xmlns="http://www.w3.org/2000/svg">
<path d="M99.0266 156.774C98.2266 158.429 96.5266 157.809 95.2266 158.326C94.3266 158.636 93.2266 159.464 92.2266 158.947C91.2266 158.326 90.5266 159.257 89.6266 159.05C89.0266 158.947 88.2266 158.74 87.6266 159.464C87.4266 159.671 86.8266 159.671 86.6266 159.567C86.0266 159.154 85.4266 158.636 84.8266 159.567C83.4266 158.636 81.7266 159.257 80.2266 158.843C78.5266 158.326 76.7266 157.912 74.9266 157.809C74.4266 157.291 73.9266 156.774 73.4266 156.257C72.9266 156.878 72.3266 156.981 71.5266 156.567C68.8266 155.015 65.7266 154.084 63.2266 152.222C61.3266 150.774 59.2266 149.739 57.5266 147.877C55.8266 145.911 53.6266 144.36 51.8266 142.498C49.2266 139.704 47.0266 136.601 44.5266 133.807C44.2266 132.359 43.0266 131.531 42.2266 130.29C41.4266 129.049 40.4266 127.911 39.6266 126.566C38.9266 125.221 38.2266 123.876 37.1266 122.841C36.7266 122.428 37.0266 122.014 37.5266 121.6C36.8266 120.669 35.6266 120.255 35.2266 118.807C34.9266 117.669 33.7266 116.738 33.1266 115.496C31.1266 112.082 29.2266 108.565 27.5266 104.944C26.9266 103.599 26.5266 102.047 25.7266 100.909C24.9266 99.7712 24.8266 98.3228 24.0266 97.0814C23.2266 95.8399 22.6266 94.495 22.1266 93.0467C20.6266 88.9085 18.7266 84.9773 17.2266 80.7357C15.6266 76.3907 13.9266 72.0456 12.5266 67.4936C12.0266 65.9418 11.3266 64.39 10.9266 62.8382C10.3266 60.8726 9.9266 58.907 9.3266 57.0448C8.7266 55.1827 7.8266 53.5274 7.7266 51.5618C7.7266 51.148 7.0266 50.6307 7.2266 50.1134C7.4266 49.5962 6.2266 49.4927 7.0266 48.7685C7.3266 48.4582 6.4266 48.0444 6.2266 47.6305C5.9266 47.0098 6.1266 46.2856 5.9266 45.5615C5.0266 42.044 3.9266 38.6301 3.3266 35.1127C3.0266 33.0436 2.7266 30.9745 1.9266 29.0089C1.4266 27.8709 2.0266 26.3191 1.3266 25.0777C1.7266 22.9051 0.426599 20.9395 0.726599 18.8704C0.826599 18.2497 -0.0734013 17.8359 0.626599 17.0083C0.826599 16.491 -0.173401 15.6634 0.0265986 14.8358C0.226599 14.1116 0.0265986 13.3874 0.0265986 12.5598C0.0265986 11.8356 0.0265986 11.008 0.0265986 10.2838C0.0265986 8.42163 0.526599 6.76637 1.6266 5.11111C2.6266 3.55931 3.6266 2.31786 5.0266 1.28333C5.5266 0.869511 6.0266 0.972965 6.5266 1.07642C7.1266 2.11095 6.1266 2.73168 6.0266 3.55931C5.8266 4.28348 5.0266 4.6973 5.3266 5.62838C5.5266 6.2491 4.7266 6.86982 5.5266 7.594C6.2266 8.31817 4.6266 8.93889 5.1266 9.86998C5.3266 9.86998 5.6266 9.97343 5.8266 10.0769C5.9266 10.0769 6.0266 10.1803 6.0266 10.2838C5.9266 12.146 6.4266 13.9047 6.6266 15.6634C6.7266 16.0772 6.2266 16.2841 6.0266 16.5945C6.3266 16.6979 6.6266 16.8014 7.0266 16.9048C7.2266 17.5255 7.3266 18.1463 6.7266 18.6635C6.8266 18.767 6.8266 18.9739 6.9266 19.0773C7.7266 19.5946 7.5266 20.5257 7.8266 21.2499C8.9266 25.388 9.4266 29.7331 11.0266 33.6643C11.0266 36.1472 12.3266 38.2163 12.9266 40.4922C13.3266 41.9406 13.7266 43.3889 14.1266 44.7338C14.5266 46.1822 15.8266 47.3202 15.4266 48.9754C16.7266 51.0445 16.9266 53.6309 18.0266 55.8034C18.8266 57.3552 19.0266 59.1139 19.7266 60.7692C20.4266 62.321 20.9266 64.0797 21.5266 65.6315C22.5266 68.0109 23.2266 70.4938 24.5266 72.8732C25.2266 74.1147 25.8266 75.563 26.3266 76.9079C28.5266 83.2186 31.6266 89.1154 34.6266 95.1158C35.5266 96.8745 36.8266 98.5297 37.1266 100.495C37.3266 101.53 38.3266 101.944 38.5266 103.082C38.6266 103.806 39.6266 104.427 40.0266 105.254C40.4266 106.185 40.9266 106.909 41.3266 107.737C42.1266 109.082 43.1266 110.427 42.8266 112.082C43.3266 112.496 43.3266 111.979 43.5266 111.875C45.1266 113.531 45.2266 113.737 44.5266 115.496C44.8266 115.703 45.0266 116.013 45.2266 116.22C45.4266 116.013 45.6266 115.91 45.7266 115.703C47.4266 117.151 48.5266 118.807 48.1266 121.083C48.7266 121.29 48.8266 120.462 49.4266 120.772C50.7266 122.634 51.9266 124.703 53.4266 126.462C54.6266 127.704 55.7266 129.049 57.0266 130.29C58.3266 131.635 59.6266 132.98 60.9266 134.325C62.2266 135.67 63.3266 137.118 64.8266 138.256C67.4266 140.325 70.0266 142.291 72.8266 144.049C75.1266 145.394 77.5266 146.532 79.8266 147.567C81.4266 148.291 83.2266 148.705 85.0266 148.912C85.9266 149.015 86.7266 149.222 87.5266 149.532C87.8266 149.636 88.2266 149.636 88.5266 149.222C88.6266 148.498 88.1266 148.084 87.7266 147.877C85.3266 146.946 83.5266 144.98 81.7266 143.222C79.9266 141.566 78.2266 139.704 76.5266 137.842C73.7266 134.842 71.4266 131.531 69.4266 127.911C68.1266 125.635 66.7266 123.462 65.6266 121.083C63.8266 117.358 62.3266 113.634 61.3266 109.703C61.2266 109.185 60.5266 108.875 60.7266 108.254C61.0266 107.427 59.6266 106.909 60.3266 106.289C61.2266 105.565 59.9266 105.254 60.1266 104.633C60.3266 104.116 60.2266 103.392 59.6266 102.875C59.3266 102.564 59.8266 102.047 60.1266 101.737C58.9266 101.22 59.1266 99.8746 59.1266 99.047C58.9266 96.2538 58.8266 93.357 59.1266 90.5638C59.4266 88.5982 59.5266 86.5291 60.1266 84.5635C60.7266 82.7013 61.5266 80.8392 62.0266 78.8735C62.4266 77.5286 63.2266 76.5976 63.8266 75.3561C64.3266 74.2181 65.2266 73.287 65.6266 72.1491C66.3266 70.5973 67.8266 69.9765 68.6266 68.7351C69.4266 67.4936 70.9266 66.8729 72.2266 66.1487C73.7266 65.3211 75.3266 64.39 77.0266 63.8728C78.6266 63.3555 80.2266 62.7348 81.9266 62.321C84.1266 61.8037 86.3266 61.2864 88.6266 61.2864C89.6266 61.2864 90.5266 60.5622 91.6266 60.7692C93.0266 60.8726 94.4266 60.7692 95.8266 61.2864C97.1266 61.7002 98.5266 61.4933 99.9266 61.8037C105.227 63.1486 106.127 63.0451 111.227 65.7349C111.927 66.1487 112.427 67.1833 113.427 66.9764C116.427 70.2869 120.027 73.0801 122.327 77.0114C125.227 81.7702 127.427 86.8395 128.927 92.2191C129.327 93.7709 130.227 95.1158 130.227 96.771C131.127 93.7709 129.027 91.288 128.927 87.7706C130.327 90.2534 130.627 92.3225 131.127 94.3916C131.727 97.0814 132.227 99.8746 132.327 102.668C132.327 103.909 132.727 105.358 132.827 106.703C132.927 107.944 132.027 108.875 132.227 110.117C132.427 111.255 132.427 112.393 132.227 113.531C131.427 117.048 130.827 120.565 129.827 124.083C128.827 127.807 127.127 131.221 125.427 134.635C124.327 136.808 123.127 139.084 121.227 140.739C120.427 141.36 120.327 142.704 119.227 143.015C119.127 143.015 119.327 143.532 119.027 143.739C118.427 144.153 118.827 144.773 118.627 145.291C121.527 146.118 124.427 146.636 127.227 147.36C129.327 147.877 131.527 147.877 133.627 148.291C135.727 148.705 138.027 148.601 140.127 148.291C143.227 147.877 146.427 147.567 149.527 146.532C152.527 145.601 155.227 144.049 158.027 142.704C158.927 142.291 159.127 140.946 160.327 141.049C162.027 138.67 164.927 137.635 166.327 134.945C167.227 133.29 168.827 132.152 169.927 130.6C171.527 128.324 172.927 125.841 174.527 123.566C175.827 121.703 176.727 119.634 177.827 117.669C179.527 114.772 180.627 111.565 181.727 108.358C182.327 106.599 183.127 104.84 183.627 102.978C184.227 100.288 185.327 97.7021 185.127 94.9089C185.027 93.7709 184.427 92.7363 184.527 91.4949C184.627 90.7707 184.927 90.3569 185.427 89.9431C186.227 91.1845 186.427 92.7363 187.827 94.0812C187.427 92.9432 189.127 92.6329 188.027 91.288C187.527 90.6673 188.127 89.3224 187.127 88.5982C187.527 88.1844 187.827 87.9775 188.427 87.4602C188.727 87.874 189.127 88.3913 189.427 88.9085C189.627 89.4258 189.527 90.0465 190.627 89.7362C189.927 88.7016 190.127 87.6671 190.127 86.4257C191.227 86.4257 192.327 86.1153 193.227 86.8395C193.527 86.6326 193.127 86.0118 193.627 85.9084C194.027 86.4257 194.727 86.736 195.027 87.4602C195.227 88.0809 195.527 88.5982 195.827 89.2189C196.427 88.7016 195.727 87.9775 196.327 87.5636C196.927 88.3913 197.227 89.3224 197.227 90.4604C197.127 93.1501 197.127 95.9434 197.227 98.6332C197.327 100.082 196.727 101.323 196.527 102.668C196.127 105.461 195.327 108.358 194.327 111.048C193.527 113.324 193.027 115.806 191.627 117.772C190.127 123.152 186.427 127.186 183.827 131.945C183.227 133.083 182.227 134.118 181.327 135.049C178.027 138.67 175.027 142.704 171.327 146.015C166.227 150.567 160.727 154.395 154.527 157.188C151.927 158.326 149.327 159.154 146.627 159.878C144.627 160.395 142.627 160.602 140.727 161.43C140.527 161.533 140.427 161.43 140.227 161.533C137.127 161.947 125.127 162.568 122.727 162.05C120.127 161.533 117.427 161.326 114.827 160.705C112.327 160.085 109.927 159.36 107.427 158.74C107.227 158.74 107.027 158.843 106.927 158.74C104.527 156.671 101.927 156.567 99.0266 156.774ZM96.8266 134.118C97.8266 134.842 98.5266 135.773 99.5266 136.394C101.827 138.049 104.427 139.187 106.927 140.428C108.027 140.946 109.127 140.739 109.727 139.808C111.727 136.497 113.727 133.29 114.927 129.669C115.427 127.911 116.127 126.255 116.627 124.497C117.227 122.634 117.427 120.669 117.827 118.807C118.227 116.944 118.027 115.082 118.427 113.117C119.027 110.53 117.527 107.841 117.927 105.151C116.927 104.323 117.627 103.082 117.227 102.047C116.527 99.7712 115.827 97.5986 115.127 95.3227C114.027 91.3914 112.127 87.874 109.927 84.5635C108.227 82.0806 106.327 79.4943 103.927 77.5286C102.227 76.0803 100.527 74.7354 98.6266 73.7009C95.4266 72.0456 92.1266 70.5973 88.3266 70.8042C87.8266 70.8042 87.2266 70.8042 86.7266 70.8042C82.9266 70.4938 81.0266 72.7698 79.1266 75.563C78.1266 77.0114 77.8266 78.8735 76.5266 80.115C76.7266 80.5288 77.5266 80.8392 76.8266 81.4599C76.4266 81.8737 76.4266 82.2875 76.5266 82.7013C76.6266 83.529 75.5266 82.9082 75.5266 83.529C76.5266 84.5635 76.0266 85.2877 75.1266 86.0118C74.9266 85.8049 74.7266 85.7015 74.4266 85.3911C74.2266 87.3567 74.3266 89.1155 73.9266 90.8742C73.3266 93.4605 74.2266 96.1503 74.5266 98.7366C74.8266 101.22 75.3266 103.702 76.5266 106.082C76.5266 106.185 76.2266 106.496 76.0266 106.703C77.8266 107.944 78.3266 110.117 79.2266 111.875C80.8266 115.082 82.4266 118.393 84.9266 120.979C85.3266 121.393 85.1266 121.91 85.3266 122.221C85.8266 122.945 85.7266 123.772 86.0266 124.497C86.4266 124.497 86.7266 124.497 87.0266 124.497C87.6266 124.703 87.3266 125.428 87.8266 125.841C88.2266 126.152 88.8266 126.048 89.1266 126.876C89.6266 128.117 90.8266 129.049 91.8266 129.876C92.8266 130.704 93.1266 132.463 94.8266 132.566C95.4266 132.566 95.4266 133.601 95.8266 134.118C96.1266 134.118 96.5266 134.118 96.8266 134.118ZM63.9266 85.8049C63.6266 87.5636 62.4266 89.1154 62.8266 90.9776C62.9266 91.3914 62.7266 91.5983 62.4266 91.9087C62.2266 92.3225 62.3266 95.633 62.2266 96.1503C62.0266 97.4952 63.3266 98.6332 62.7266 99.8746C62.0266 101.22 62.5266 102.358 62.7266 103.702C63.2266 106.909 64.2266 109.91 66.1266 113.117C66.0266 111.979 66.0266 111.151 66.6266 110.634C66.2266 110.427 65.8266 110.53 65.5266 110.117C66.0266 107.737 64.8266 105.565 64.6266 103.185C64.4266 101.013 63.9266 98.7366 63.9266 96.4607C63.9266 92.8398 63.9266 89.3224 63.9266 85.8049Z" fill="white"/>
</svg>
